<?xml version="1.0" encoding="UTF-8" standalone="no"?>
<!-- Uploaded to: SVG Repo, www.svgrepo.com, Generator: SVG Repo Mixer Tools -->

<svg
   width="800px"
   height="800px"
   viewBox="-4 0 64 64"
   version="1.1"
   id="svg4"
   sodipodi:docname="csv.svg"
   inkscape:version="1.4.2 (f4327f4, 2025-05-13)"
   xmlns:inkscape="http://www.inkscape.org/namespaces/inkscape"
   xmlns:sodipodi="http://sodipodi.sourceforge.net/DTD/sodipodi-0.dtd"
   xmlns="http://www.w3.org/2000/svg"
   xmlns:svg="http://www.w3.org/2000/svg">
  <defs
     id="defs4" />
  <sodipodi:namedview
     id="namedview4"
     pagecolor="#ffffff"
     bordercolor="#000000"
     borderopacity="0.25"
     inkscape:showpageshadow="2"
     inkscape:pageopacity="0.0"
     inkscape:pagecheckerboard="0"
     inkscape:deskcolor="#d1d1d1"
     inkscape:zoom="1.00875"
     inkscape:cx="400"
     inkscape:cy="400"
     inkscape:window-width="1920"
     inkscape:window-height="1009"
     inkscape:window-x="-8"
     inkscape:window-y="-8"
     inkscape:window-maximized="1"
     inkscape:current-layer="svg4" />
  <path
     d="M5.106 0c-2.802 0-5.073 2.272-5.073 5.074v53.841c0 2.803 2.271 5.074 5.073 5.074h45.774c2.801 0 5.074-2.271 5.074-5.074v-38.605l-18.903-20.31h-31.945z"
     fill-rule="evenodd"
     clip-rule="evenodd"
     fill="#45B058"
     id="path1" />
  <path
     d="m 11.8973,44.291336 c 0.2592,-0.2268 0.5832,-0.3564 0.9396,-0.3564 0.6804,0 1.296,0.5508 1.296,1.2654 0,0.324 -0.1296,0.6804 -0.4212,0.9072 -1.5228,1.2636 -2.4966,3.4038 -2.4966,5.4126 0,4.732199 3.6306,8.328599 8.784,8.328599 5.121,0 8.7822,-3.5982 8.7822,-8.328599 0,-2.0412 -0.8748,-4.05 -2.4642,-5.4126 -0.2592,-0.225 -0.4194,-0.5832 -0.4194,-0.9072 0,-0.747 0.6462,-1.2654 1.3284,-1.2654 0.324,0 0.648,0.1296 0.9072,0.3564 1.7496,1.6866 3.0474,3.987 3.0474,7.227 0,6.222599 -4.5378,11.116799 -11.1816,11.116799 -6.6438,0 -11.1816,-4.8942 -11.1816,-11.116799 0.0018,-3.24 1.2978,-5.5728 3.0798,-7.227 z m 19.2852,-12.2436 c 0,3.2076 -1.0692,5.7366 -2.691,7.5834 -0.2592,0.2916 -0.6156,0.4212 -0.972,0.4212 -0.6498,0 -1.3626,-0.486 -1.3626,-1.2636 0,-0.2592 0.0648,-0.5508 0.2592,-0.7776 1.3302,-1.4904 2.3652,-3.564 2.3652,-6.0606 0,-3.8574 -2.0736,-5.0886 -3.7278,-5.0886 -5.5746,0 -2.4948,12.8016 -10.2096,12.8016 -3.564,0 -5.9958,-3.1752 -5.9958,-7.4214 0,-2.7864 0.8406,-5.1858 2.3004,-6.9354 0.2592,-0.2916 0.6156,-0.4536 0.972,-0.4536 0.648,0 1.296,0.5508 1.296,1.2654 0,0.2592 -0.0972,0.5508 -0.2916,0.7776 -1.296,1.5876 -1.8792,3.564 -1.8792,5.5422 0,2.592 1.3932,4.4406 3.4362,4.4406 4.8618,0 2.0736,-12.8016 10.1448,-12.8016 3.1464,-0.0018 6.3558,2.1366 6.3558,7.9704 z m -20.2572,-30.5892 18.603,7.4862002 c 0.8748,0.3564 1.458,1.2329998 1.458,2.1383998 v 0.0648 c 0,0.9396 -0.5832,1.8144 -1.458,2.1726 l -18.603,7.4556 c -0.162,0.0648 -0.324,0.0972 -0.5184,0.0972 -0.648,0 -1.4274,-0.5814 -1.4274,-1.458 0,-0.5508 0.324,-1.0692 0.8748,-1.296 l 17.9856,-7.0002 -17.9856,-7.0002 c -0.5184,-0.1944 -0.8748,-0.7128 -0.8748,-1.296 0,-0.8424 0.6804,-1.458 1.4274,-1.458 0.162,-0.0018 0.3564,0.0306 0.5184,0.0936 z"
     fill="#ffffff"
     id="path2"
     style="stroke-width:1.9728;stroke-dasharray:none" />
  <g
     fill-rule="evenodd"
     clip-rule="evenodd"
     id="g4">
    <path
       d="M56.001 20.357v1h-12.8s-6.312-1.26-6.128-6.707c0 0 .208 5.707 6.003 5.707h12.925z"
       fill="#349C42"
       id="path3" />
    <path
       d="M37.098.006v14.561c0 1.656 1.104 5.791 6.104 5.791h12.8l-18.904-20.352z"
       opacity=".5"
       fill="#ffffff"
       id="path4" />
  </g>
</svg>
