<?xml version="1.0" encoding="UTF-8" standalone="no"?>
<!-- Uploaded to: SVG Repo, www.svgrepo.com, Generator: SVG Repo Mixer Tools -->

<svg
   width="800px"
   height="800px"
   viewBox="-4 0 64 64"
   version="1.1"
   id="svg4"
   sodipodi:docname="excel.svg"
   inkscape:version="1.4.2 (f4327f4, 2025-05-13)"
   xmlns:inkscape="http://www.inkscape.org/namespaces/inkscape"
   xmlns:sodipodi="http://sodipodi.sourceforge.net/DTD/sodipodi-0.dtd"
   xmlns="http://www.w3.org/2000/svg"
   xmlns:svg="http://www.w3.org/2000/svg">
  <defs
     id="defs4" />
  <sodipodi:namedview
     id="namedview4"
     pagecolor="#ffffff"
     bordercolor="#000000"
     borderopacity="0.25"
     inkscape:showpageshadow="2"
     inkscape:pageopacity="0.0"
     inkscape:pagecheckerboard="0"
     inkscape:deskcolor="#d1d1d1"
     inkscape:zoom="1.00875"
     inkscape:cx="400"
     inkscape:cy="400"
     inkscape:window-width="1920"
     inkscape:window-height="1009"
     inkscape:window-x="-8"
     inkscape:window-y="-8"
     inkscape:window-maximized="1"
     inkscape:current-layer="svg4" />
  <path
     d="M5.112.006c-2.802 0-5.073 2.273-5.073 5.074v53.841c0 2.803 2.271 5.074 5.073 5.074h45.774c2.801 0 5.074-2.271 5.074-5.074v-38.605l-18.902-20.31h-31.946z"
     fill-rule="evenodd"
     clip-rule="evenodd"
     fill="#45B058"
     id="path1" />
  <path
     d="m 31.0043,42.9152 c 0,0.3888 -0.162,0.747 -0.486,0.972 l -8.946,6.7104 8.946,6.741 c 0.324,0.2268 0.486,0.5832 0.486,0.972 0,0.7128 -0.5508,1.296 -1.296,1.296 -0.2592,0 -0.5508,-0.063 -0.7776,-0.2592 l -9.2358,-7.002 -8.6868,6.5142 c -0.2268,0.162 -0.486,0.261 -0.7452,0.261 -0.6156,0 -1.296,-0.5184 -1.296,-1.2978 0,-0.3888 0.1944,-0.7776 0.5184,-1.0368 l 8.3304,-6.1884 -8.3628,-6.1884 c -0.324,-0.2286 -0.486,-0.5832 -0.486,-0.9738 0,-0.6804 0.5508,-1.3284 1.296,-1.3284 0.2592,0 0.5184,0.0648 0.7452,0.2286 l 8.6544,6.5142 9.2682,-7.0038 c 0.2268,-0.162 0.486,-0.225 0.7452,-0.225 0.7128,0 1.3284,0.5832 1.3284,1.2942 z M 30.7775,24.935 v 9.819 c 0,1.071 -0.8748,1.9458 -1.944,1.9458 H 10.2629 c -0.7128,0 -1.296,-0.5832 -1.296,-1.3932 0,-0.7128 0.5832,-1.2978 1.296,-1.2978 h 18.117 V 24.935 c 0,-0.6462 0.5184,-1.1664 1.1664,-1.1664 0.7128,0 1.2312,0.5202 1.2312,1.1664 z m 0.3888,-12.5676 c 0,3.2076 -1.0692,5.7384 -2.691,7.5834 -0.2592,0.2916 -0.6156,0.4212 -0.972,0.4212 -0.648,0 -1.3608,-0.486 -1.3608,-1.2636 0,-0.2592 0.0648,-0.5508 0.2592,-0.7794 1.3284,-1.4904 2.3652,-3.564 2.3652,-6.0606 0,-3.8574 -2.0736,-5.0868 -3.7278,-5.0868 -5.5746,0 -2.4948,12.7998 -10.2096,12.7998 -3.564,0 -5.9958,-3.1752 -5.9958,-7.4214 0,-2.7864 0.8424,-5.1858 2.3004,-6.9354 0.2592,-0.2916 0.6156,-0.4554 0.972,-0.4554 0.648,0 1.296,0.5526 1.296,1.2654 0,0.261 -0.0972,0.5526 -0.2916,0.7776 -1.296,1.5894 -1.8792,3.564 -1.8792,5.5422 0,2.592 1.3932,4.4406 3.4362,4.4406 4.8618,0 2.0736,-12.8016 10.1448,-12.8016 3.1464,0 6.354,2.1384 6.354,7.974 z"
     fill="#ffffff"
     id="path2"
     style="stroke-width:1.8" />
  <path
     d="M55.953 20.352v1h-12.801s-6.312-1.26-6.127-6.707c0 0 .207 5.707 6.002 5.707h12.926z"
     fill-rule="evenodd"
     clip-rule="evenodd"
     fill="#349C42"
     id="path3" />
  <path
     d="M37.049 0v14.561c0 1.656 1.104 5.791 6.104 5.791h12.801l-18.905-20.352z"
     opacity=".5"
     fill-rule="evenodd"
     clip-rule="evenodd"
     fill="#ffffff"
     id="path4" />
</svg>
