<?xml version="1.0" encoding="UTF-8" standalone="no"?>
<!-- Uploaded to: SVG Repo, www.svgrepo.com, Generator: SVG Repo Mixer Tools -->

<svg
   width="800px"
   height="800px"
   viewBox="0 0 16 16"
   fill="none"
   version="1.1"
   id="svg2"
   sodipodi:docname="quit.svg"
   inkscape:version="1.4 (86a8ad7, 2024-10-11)"
   xmlns:inkscape="http://www.inkscape.org/namespaces/inkscape"
   xmlns:sodipodi="http://sodipodi.sourceforge.net/DTD/sodipodi-0.dtd"
   xmlns="http://www.w3.org/2000/svg"
   xmlns:svg="http://www.w3.org/2000/svg">
  <defs
     id="defs2" />
  <sodipodi:namedview
     id="namedview2"
     pagecolor="#ffffff"
     bordercolor="#000000"
     borderopacity="0.25"
     inkscape:showpageshadow="2"
     inkscape:pageopacity="0.0"
     inkscape:pagecheckerboard="0"
     inkscape:deskcolor="#d1d1d1"
     inkscape:zoom="1.00875"
     inkscape:cx="400"
     inkscape:cy="400"
     inkscape:window-width="1920"
     inkscape:window-height="1009"
     inkscape:window-x="-8"
     inkscape:window-y="-8"
     inkscape:window-maximized="1"
     inkscape:current-layer="svg2" />
  <path
     d="m 0.3646418,8.0000862 a 7.92,7.92 0 0 1 11.2384802,-7.19399999 0.99075001,0.99075001 0 0 1 -0.83028,1.79915999 5.94,5.94 0 1 0 0,10.7909998 0.99,0.99 0 1 1 0.8316,1.79652 A 7.92,7.92 0 0 1 0.3646418,8.0000862 Z"
     id="path1"
     style="fill:#5b759f;fill-opacity:1;stroke-width:1.32" />
  <path
     d="m 10.999444,4.36451 a 0.825,0.825 0 0 0 -0.055,1.166 l 1.496,1.6445 H 6.0549439 a 0.825,0.825 0 0 0 0,1.65 h 6.3855001 l -1.496,1.6445 a 0.82540324,0.82540324 0 0 0 1.221,1.111 l 2.75,-3.025 a 0.8228,0.8228 0 0 0 -0.0022,-1.1132 l -2.7478,-3.0228 a 0.825,0.825 0 0 0 -1.166,-0.055 z"
     id="path2"
     style="fill:#1a1a1a;fill-opacity:1;stroke-width:1.1" />
</svg>
